<svg xmlns="http://www.w3.org/2000/svg" xmlns:xlink="http://www.w3.org/1999/xlink" viewBox="0 0 116.27 80.51"><defs><style>.cls-1{fill:#fff;}.cls-2{fill:url(#linear-gradient);}.cls-3{fill:url(#linear-gradient-2);}.cls-4{fill:url(#linear-gradient-3);}.cls-5{fill:url(#linear-gradient-4);}.cls-6{fill:url(#linear-gradient-5);}.cls-7{fill:url(#linear-gradient-6);}.cls-8{fill:url(#linear-gradient-7);}.cls-9{fill:url(#linear-gradient-8);}.cls-10{fill:url(#linear-gradient-9);}.cls-11{fill:url(#linear-gradient-10);}.cls-12{fill:url(#linear-gradient-11);}.cls-13{fill:url(#linear-gradient-12);}.cls-14{fill:url(#linear-gradient-13);}.cls-15{fill:url(#linear-gradient-14);}.cls-16{fill:url(#linear-gradient-15);}.cls-17{fill:url(#linear-gradient-16);}</style><linearGradient id="linear-gradient" x1="93.98" y1="9.16" x2="94.36" y2="14.42" gradientUnits="userSpaceOnUse"><stop offset="0" stop-color="#fff" stop-opacity="0"/><stop offset="1"/></linearGradient><linearGradient id="linear-gradient-2" x1="94.37" y1="-337.21" x2="94.75" y2="-331.95" gradientTransform="translate(188.65 -311.28) rotate(180)" xlink:href="#linear-gradient"/><linearGradient id="linear-gradient-3" x1="74.55" y1="21.33" x2="81.3" y2="21.83" xlink:href="#linear-gradient"/><linearGradient id="linear-gradient-4" x1="94.44" y1="-337.26" x2="102.9" y2="-336.64" gradientTransform="translate(188.26 -318.7) rotate(180)" xlink:href="#linear-gradient"/><linearGradient id="linear-gradient-5" x1="100.76" y1="64.68" x2="95.54" y2="62.74" xlink:href="#linear-gradient"/><linearGradient id="linear-gradient-6" x1="85.11" y1="61.06" x2="92.82" y2="62.02" xlink:href="#linear-gradient"/><linearGradient id="linear-gradient-7" x1="71.29" y1="49.6" x2="68.97" y2="54.24" xlink:href="#linear-gradient"/><linearGradient id="linear-gradient-8" x1="66.29" y1="-297.68" x2="64.09" y2="-293.26" gradientTransform="translate(131.25 -234.03) rotate(180)" xlink:href="#linear-gradient"/><linearGradient id="linear-gradient-9" x1="52.47" y1="52.83" x2="49.59" y2="53.73" xlink:href="#linear-gradient"/><linearGradient id="linear-gradient-10" x1="31.23" y1="-313.59" x2="28.35" y2="-312.69" gradientTransform="translate(69.86 -264.14) rotate(180)" xlink:href="#linear-gradient"/><linearGradient id="linear-gradient-11" x1="22.15" y1="38.85" x2="22.07" y2="43.76" gradientUnits="userSpaceOnUse"><stop offset="0" stop-color="#fff" stop-opacity="0"/><stop offset="0.1" stop-color="#c3c3c3" stop-opacity="0.23"/><stop offset="1"/></linearGradient><linearGradient id="linear-gradient-12" x1="22.15" y1="-307.31" x2="22.07" y2="-302.4" gradientTransform="translate(44.26 -255.23) rotate(180)" xlink:href="#linear-gradient"/><linearGradient id="linear-gradient-13" x1="14.39" y1="36.74" x2="20.27" y2="35.74" xlink:href="#linear-gradient"/><linearGradient id="linear-gradient-14" x1="20.46" y1="-318.98" x2="26.33" y2="-319.98" gradientTransform="translate(50.1 -285.72) rotate(180)" xlink:href="#linear-gradient"/><linearGradient id="linear-gradient-15" x1="34.26" y1="25.16" x2="35.88" y2="29.41" gradientUnits="userSpaceOnUse"><stop offset="0" stop-color="#fff" stop-opacity="0"/><stop offset="0.07" stop-color="#d7d7d7" stop-opacity="0.16"/><stop offset="1"/></linearGradient><linearGradient id="linear-gradient-16" x1="44.79" y1="-323.89" x2="46.42" y2="-319.64" gradientTransform="translate(84.32 -286.47) rotate(180)" gradientUnits="userSpaceOnUse"><stop offset="0" stop-color="#fff" stop-opacity="0"/><stop offset="0.05" stop-color="#e5e5e5" stop-opacity="0.1"/><stop offset="1"/></linearGradient></defs><title>Asset 365654</title><g id="Layer_2" data-name="Layer 2"><g id="Layer_1-2" data-name="Layer 1"><polygon class="cls-1" points="20.64 80.51 23.62 80.51 23.62 49.31 20.64 48.59 20.64 80.51"/><polygon class="cls-1" points="23.62 4.81 34.07 28.61 37.03 27.89 24.9 0 20.64 0 20.64 41.62 23.62 42.34 23.62 4.81"/><polygon class="cls-1" points="34.89 30.47 34.89 30.47 25.62 32.71 25.62 35.55 36.01 33.03 38.96 32.32 40.93 31.84 39.8 29.28 37.84 29.75 37.84 29.75 34.89 30.47 34.89 30.47"/><polygon class="cls-1" points="58.02 76.14 49.04 55.49 48.53 54.33 48.03 53.18 46.64 49.97 46.14 48.83 45.64 47.68 39.77 34.18 36.83 34.9 42.06 46.81 42.06 46.81 42.06 46.81 42.57 47.96 43.07 49.11 44.48 52.31 44.99 53.47 45.49 54.63 45.49 54.63 56.86 80.51 59.24 80.51 68.18 60.14 65.31 59.44 58.02 76.14"/><polygon class="cls-1" points="70.96 53.81 85.32 21.09 85.32 21.09 86.71 17.92 87.22 16.77 87.72 15.62 87.72 15.62 87.72 15.62 92.64 4.42 92.64 14.43 95.62 13.71 95.62 0 91.25 0 84.05 16.51 83.54 17.66 83.04 18.81 81.66 21.97 68.07 53.11 70.96 53.81"/><polygon class="cls-1" points="92.64 59.06 92.64 60.09 92.64 61.12 92.64 64.01 92.64 65.05 92.64 66.08 92.64 80.51 95.62 80.51 95.62 66.8 95.62 65.77 95.62 64.73 95.62 61.84 95.62 60.82 95.62 59.78 95.62 20.66 92.64 21.38 92.64 59.06"/><polygon class="cls-1" points="25.62 44.88 25.62 44.88 24.62 44.64 23.62 44.4 20.64 43.67 19.64 43.43 18.64 43.19 18.64 43.19 9.35 40.94 6.34 40.22 9.35 39.49 18.64 37.24 18.64 34.41 0 38.92 0 41.51 18.64 46.04 20.64 46.52 23.62 47.25 24.62 47.49 25.62 47.73 42.03 51.72 40.63 48.52 25.62 44.88"/><polygon class="cls-1" points="72.12 56.15 72.12 56.15 71.13 55.91 70.15 55.67 67.26 54.97 66.27 54.73 65.29 54.49 65.29 54.49 49.07 50.56 50.46 53.77 64.15 57.09 65.14 57.33 66.12 57.57 69 58.27 70.98 58.75 90.64 63.52 90.64 60.63 72.12 56.15 72.12 56.15"/><polygon class="cls-1" points="97.62 65.22 116.27 69.75 116.27 66.84 97.62 62.32 97.62 65.22"/><polygon class="cls-1" points="80.6 19.4 39.81 29.28 40.93 31.84 79.22 22.56 80.6 19.4"/><polygon class="cls-1" points="97.62 15.28 97.62 15.28 96.62 15.52 95.62 15.76 92.64 16.48 91.64 16.73 90.64 16.97 90.64 16.97 89.16 17.33 87.77 20.49 90.64 19.8 91.64 19.56 92.64 19.31 95.62 18.59 96.62 18.35 97.62 18.11 116.27 13.59 116.27 10.76 97.62 15.28"/><polygon class="cls-2" points="92.64 14.43 95.62 13.71 95.62 8.1 92.64 8.74 92.64 14.43"/><polygon class="cls-3" points="95.62 20.66 92.64 21.38 92.64 26.99 95.62 26.35 95.62 20.66"/><polygon class="cls-4" points="80.6 19.4 79.22 22.56 74.53 23.7 74.04 20.99 80.6 19.4"/><polygon class="cls-5" points="87.77 20.49 89.15 17.33 93.84 16.2 94.33 18.9 87.77 20.49"/><polygon class="cls-6" points="97.62 62.32 101.55 63.27 101.55 66.18 97.62 65.22 97.62 62.32"/><polygon class="cls-7" points="90.64 60.63 90.64 63.52 84.54 62.04 85.06 59.28 90.64 60.63"/><polygon class="cls-8" points="70.2 48.23 68.07 53.11 70.96 53.81 73.18 48.76 70.2 48.23"/><polygon class="cls-9" points="66.05 65.02 68.18 60.14 65.29 59.44 63.07 64.49 66.05 65.02"/><polygon class="cls-10" points="49.07 50.56 50.46 53.77 55.91 55.09 55.43 52.1 49.07 50.56"/><polygon class="cls-11" points="42.03 51.72 40.64 48.51 35.19 47.19 35.67 50.18 42.03 51.72"/><polygon class="cls-12" points="23.62 42.34 20.64 41.62 20.64 38.09 23.62 38.44 23.62 42.34"/><polygon class="cls-13" points="20.64 48.59 23.62 49.31 23.62 52.84 20.64 52.49 20.64 48.59"/><polygon class="cls-14" points="18.64 34.41 18.64 37.24 13.28 38.54 12.8 35.83 18.64 34.41"/><polygon class="cls-15" points="25.62 35.55 25.62 32.72 30.98 31.42 31.46 34.14 25.62 35.55"/><polygon class="cls-16" points="34.07 28.61 37.03 27.89 35.41 24.16 32.34 24.66 34.07 28.61"/><polygon class="cls-17" points="39.79 34.18 36.83 34.9 38.45 38.63 41.52 38.13 39.79 34.18"/></g></g></svg>